<svg version="1" xmlns="http://www.w3.org/2000/svg" width="133.333" height="133.333" viewBox="0 0 100.000000 100.000000"><path d="M37.5 10c-11.9 3.8-22 13.3-26.7 25-3.1 7.8-3.1 22.2 0 30 6.8 17 24 28.1 41.6 26.7 18.2-1.4 32.5-12.7 37.8-30C99.7 30.1 69 0 37.5 10zm25.7 9.9c6.6 2.8 13.3 9.3 16.5 16 2.3 4.7 2.7 6.9 2.7 14.1 0 7.4-.4 9.3-2.9 14.3-3.4 6.8-9.7 12.9-16.3 15.9-6.6 3-19.8 3-26.4 0-6.7-3-13.3-9.4-16.5-16.1-2.3-4.8-2.7-6.8-2.7-14.1.1-9.9 2.1-15.4 7.9-21.9 7.2-8 15.7-11.4 26.5-10.7 3.6.3 8.6 1.4 11.2 2.5z"/><path d="M45.4 34c-3.6 1.4-7.2 6.7-8 11.5C36 55.3 39.3 63.2 46 66c3.8 1.6 12.1.8 15.4-1.4 2.4-1.5 2.6-2.2 2.6-8.6v-7H51v3c0 2.7.3 3 3 3 2.5 0 3 .4 3 2.4 0 4.4-6.7 5-9.9 1-3-3.8-3-14.5-.1-17.4 2.7-2.7 6.4-2.5 8.8.5 1.4 1.7 3 2.5 5.1 2.5 3.4 0 3.6-.5 2.1-4.4-2-5.2-11.2-8.2-17.6-5.6z"/></svg>