<?xml version="1.0" standalone="no"?>
<!DOCTYPE svg PUBLIC "-//W3C//DTD SVG 20010904//EN"
 "http://www.w3.org/TR/2001/REC-SVG-20010904/DTD/svg10.dtd">
<svg version="1.0" xmlns="http://www.w3.org/2000/svg"
 width="512.000000pt" height="512.000000pt" viewBox="0 0 512.000000 512.000000"
 preserveAspectRatio="xMidYMid meet">
<metadata>
Created by potrace 1.11, written by Peter Selinger 2001-2013
</metadata>
<g transform="translate(0.000000,512.000000) scale(0.100000,-0.100000)"
fill="#000000" stroke="none">
<path d="M2548 4695 c-2 -1 -57 -5 -123 -9 -142 -7 -165 -10 -315 -42 -634
-135 -1183 -566 -1465 -1149 -120 -247 -177 -451 -210 -748 -7 -64 -8 -348 -1
-387 6 -30 13 -78 22 -145 3 -27 8 -58 10 -67 2 -10 6 -28 9 -39 119 -544 447
-1020 915 -1331 266 -176 611 -303 905 -333 33 -4 71 -8 85 -11 31 -5 312 -6
360 0 129 14 166 20 280 42 103 20 315 92 433 147 363 170 684 449 900 782
169 262 295 610 322 890 4 39 9 79 11 90 5 26 5 334 0 360 -2 11 -7 49 -11 85
-4 36 -9 74 -11 85 -2 11 -6 31 -9 45 -3 14 -7 36 -10 50 -4 14 -9 39 -11 55
-14 75 -101 312 -159 431 -136 277 -322 512 -560 709 -264 218 -585 373 -913
440 -151 31 -175 35 -307 41 -60 3 -118 7 -127 8 -9 2 -18 3 -20 1z m777 -613
c164 -82 310 -189 449 -328 79 -80 209 -244 246 -312 70 -127 94 -178 129
-267 39 -99 85 -264 96 -340 16 -123 19 -162 19 -280 -1 -252 -58 -510 -160
-716 -19 -38 -34 -71 -34 -74 0 -3 -8 -18 -18 -33 -10 -15 -44 -65 -74 -112
-30 -47 -79 -114 -107 -148 l-53 -63 -29 61 c-47 100 -148 185 -264 222 -16 6
-94 11 -173 13 -79 2 -146 6 -149 9 -3 3 -6 160 -7 349 l-1 344 -30 49 c-21
34 -46 57 -80 76 l-50 27 -659 1 c-362 0 -661 2 -665 4 -3 3 -6 98 -6 213 l0
208 236 1 c224 1 238 2 283 23 48 24 86 64 107 116 8 20 13 108 14 260 2 127
3 233 4 236 0 3 108 6 239 6 188 0 248 3 293 16 189 55 305 204 314 402 2 44
4 83 5 87 0 10 19 2 125 -50z m-1897 -1674 l487 -487 2 -131 c1 -73 7 -155 14
-183 40 -168 185 -299 358 -322 24 -3 47 -8 50 -10 5 -3 7 -369 2 -398 0 -5
-17 -6 -37 -3 -182 29 -377 93 -519 169 -22 11 -53 28 -70 36 -16 9 -31 19
-33 24 -2 4 -8 7 -13 7 -5 0 -42 23 -81 51 -470 332 -740 855 -733 1416 2 89
11 197 21 248 8 40 17 90 17 103 0 16 -27 43 535 -520z"/>
</g>
</svg>
